<?xml version="1.0" encoding="UTF-8"?>
<svg height="128px" viewBox="0 0 128 128" width="128px" xmlns="http://www.w3.org/2000/svg" xmlns:xlink="http://www.w3.org/1999/xlink">
    <linearGradient id="a" gradientUnits="userSpaceOnUse" x1="8.0000455" x2="120.0000455" y1="115.999962" y2="115.999962">
        <stop offset="0" stop-color="#77767b"/>
        <stop offset="0.0357143" stop-color="#c0bfbc"/>
        <stop offset="0.0713653" stop-color="#9a9996"/>
        <stop offset="0.928571" stop-color="#9a9996"/>
        <stop offset="0.964286" stop-color="#c0bfbc"/>
        <stop offset="1" stop-color="#77767b"/>
    </linearGradient>
    <linearGradient id="b" gradientUnits="userSpaceOnUse" x1="20.994173" x2="99.776367" y1="226.875977" y2="226.875977">
        <stop offset="0"/>
        <stop offset="1" stop-opacity="0"/>
    </linearGradient>
    <path d="m 16 40 h 96 c 4.417969 0 8 3.582031 8 8 v 60 c 0 4.417969 -3.582031 8 -8 8 h -96 c -4.417969 0 -8 -3.582031 -8 -8 v -60 c 0 -4.417969 3.582031 -8 8 -8 z m 0 0" fill="url(#a)"/>
    <path d="m 16 28 h 96 c 4.417969 0 8 3.582031 8 8 v 68 c 0 4.417969 -3.582031 8 -8 8 h -96 c -4.417969 0 -8 -3.582031 -8 -8 v -68 c 0 -4.417969 3.582031 -8 8 -8 z m 0 0" fill="#deddda"/>
    <g fill="#9a9996">
        <path d="m 41.625 79.34375 h 7.871094 c 0.394531 0 0.714844 0.289062 0.714844 0.652344 v 6.84375 c 0 0.359375 -0.320313 0.652344 -0.714844 0.652344 h -7.871094 c -0.394531 0 -0.714844 -0.292969 -0.714844 -0.652344 v -6.84375 c 0 -0.363282 0.320313 -0.652344 0.714844 -0.652344 z m 0 0"/>
        <path d="m 41.625 79.015625 h 7.871094 c 0.394531 0 0.714844 0.292969 0.714844 0.652344 v 6.847656 c 0 0.359375 -0.320313 0.652344 -0.714844 0.652344 h -7.871094 c -0.394531 0 -0.714844 -0.292969 -0.714844 -0.652344 v -6.847656 c 0 -0.359375 0.320313 -0.652344 0.714844 -0.652344 z m 0 0"/>
        <path d="m 58.714844 79.34375 h 7.871094 c 0.398437 0 0.71875 0.292969 0.71875 0.652344 v 6.84375 c 0 0.359375 -0.320313 0.652344 -0.71875 0.652344 h -7.871094 c -0.394532 0 -0.714844 -0.292969 -0.714844 -0.652344 v -6.84375 c 0 -0.359375 0.320312 -0.652344 0.714844 -0.652344 z m 0 0"/>
        <path d="m 58.714844 79.015625 h 7.871094 c 0.398437 0 0.71875 0.292969 0.71875 0.652344 v 6.847656 c 0 0.359375 -0.320313 0.652344 -0.71875 0.652344 h -7.871094 c -0.394532 0 -0.714844 -0.292969 -0.714844 -0.652344 v -6.847656 c 0 -0.359375 0.320312 -0.652344 0.714844 -0.652344 z m 0 0"/>
        <path d="m 24.714844 79.34375 h 7.871094 c 0.398437 0 0.71875 0.292969 0.71875 0.652344 v 6.84375 c 0 0.359375 -0.320313 0.652344 -0.71875 0.652344 h -7.871094 c -0.394532 0 -0.714844 -0.292969 -0.714844 -0.652344 v -6.84375 c 0 -0.359375 0.320312 -0.652344 0.714844 -0.652344 z m 0 0"/>
        <path d="m 24.714844 79.015625 h 7.871094 c 0.398437 0 0.71875 0.292969 0.71875 0.652344 v 6.847656 c 0 0.359375 -0.320313 0.652344 -0.71875 0.652344 h -7.871094 c -0.394532 0 -0.714844 -0.292969 -0.714844 -0.652344 v -6.847656 c 0 -0.359375 0.320312 -0.652344 0.714844 -0.652344 z m 0 0"/>
    </g>
    <path d="m 58.714844 78.660156 h 7.871094 c 0.398437 0 0.71875 0.28125 0.71875 0.628906 v 6.597657 c 0 0.347656 -0.320313 0.628906 -0.71875 0.628906 h -7.871094 c -0.394532 0 -0.714844 -0.28125 -0.714844 -0.628906 v -6.597657 c 0 -0.347656 0.320312 -0.628906 0.714844 -0.628906 z m 0 0" fill="#c0bfbc"/>
    <path d="m 58.714844 78.039062 h 7.871094 c 0.398437 0 0.71875 0.28125 0.71875 0.628907 v 6.597656 c 0 0.347656 -0.320313 0.628906 -0.71875 0.628906 h -7.871094 c -0.394532 0 -0.714844 -0.28125 -0.714844 -0.628906 v -6.597656 c 0 -0.347657 0.320312 -0.628907 0.714844 -0.628907 z m 0 0" fill="#c0bfbc"/>
    <path d="m 41.625 78.363281 h 7.871094 c 0.394531 0 0.714844 0.292969 0.714844 0.652344 v 6.847656 c 0 0.359375 -0.320313 0.652344 -0.714844 0.652344 h -7.871094 c -0.394531 0 -0.714844 -0.292969 -0.714844 -0.652344 v -6.847656 c 0 -0.359375 0.320313 -0.652344 0.714844 -0.652344 z m 0 0" fill="#c0bfbc"/>
    <path d="m 41.625 78.039062 h 7.871094 c 0.394531 0 0.714844 0.292969 0.714844 0.652344 v 6.84375 c 0 0.359375 -0.320313 0.652344 -0.714844 0.652344 h -7.871094 c -0.394531 0 -0.714844 -0.292969 -0.714844 -0.652344 v -6.84375 c 0 -0.359375 0.320313 -0.652344 0.714844 -0.652344 z m 0 0" fill="#c0bfbc"/>
    <path d="m 25.683594 40.5 h 76.570312 c 5.238282 0 5.238282 0 5.238282 4.875 v 24.820312 c 0 5.273438 0.550781 4.785157 -3.503907 4.769532 l -78.648437 -0.210938 c -4.859375 0 -4.859375 -0.472656 -4.859375 -5.179687 v -24.378907 c 0 -4.695312 0 -4.695312 5.203125 -4.695312 z m 0 0" fill="#9a9996" stroke="#9a9996"/>
    <path d="m 25.683594 37.015625 h 76.570312 c 5.238282 0 5.238282 0 5.238282 4.878906 v 24.816407 c 0 5.277343 0.550781 4.785156 -3.503907 4.769531 l -78.648437 -0.210938 c -4.859375 0 -4.859375 -0.46875 -4.859375 -5.179687 v -24.378906 c 0 -4.695313 0 -4.695313 5.203125 -4.695313 z m 0 0" fill="#f6f5f4" stroke="#77767b"/>
    <path d="m 20.984375 64 h 86.015625" fill="none" stroke="#1a5fb4" stroke-opacity="0.70055" stroke-width="1.03692"/>
    <path d="m 24 37.507812 v 23.015626 v 10.238281" fill="none" stroke="#1a5fb4" stroke-opacity="0.704369" stroke-width="0.985715"/>
    <path d="m 21.355469 211.675781 c 2.917969 3.03125 5.839843 6.066407 8.328125 9.605469 c 2.484375 3.539062 4.535156 7.585938 10.097656 11.351562 c 5.566406 3.769532 14.640625 7.253907 25.21875 8.585938 s 22.660156 0.511719 34.742188 -0.308594" fill="none" stroke="url(#b)" stroke-linejoin="round" stroke-width="1.199" transform="matrix(1 0 0 1 0 -172)"/>
    <path d="m 24.714844 78.363281 h 7.871094 c 0.398437 0 0.71875 0.292969 0.71875 0.652344 v 6.847656 c 0 0.359375 -0.320313 0.652344 -0.71875 0.652344 h -7.871094 c -0.394532 0 -0.714844 -0.292969 -0.714844 -0.652344 v -6.847656 c 0 -0.359375 0.320312 -0.652344 0.714844 -0.652344 z m 0 0" fill="#c0bfbc"/>
    <path d="m 24.714844 78.039062 h 7.871094 c 0.398437 0 0.71875 0.292969 0.71875 0.652344 v 6.84375 c 0 0.363282 -0.320313 0.652344 -0.71875 0.652344 h -7.871094 c -0.394532 0 -0.714844 -0.289062 -0.714844 -0.652344 v -6.84375 c 0 -0.359375 0.320312 -0.652344 0.714844 -0.652344 z m 0 0" fill="#c0bfbc"/>
</svg>
