<?xml version="1.0" encoding="UTF-8"?>
<svg height="128px" viewBox="0 0 128 128" width="128px" xmlns="http://www.w3.org/2000/svg" xmlns:xlink="http://www.w3.org/1999/xlink">
    <linearGradient id="a" gradientUnits="userSpaceOnUse" x1="8.0000455" x2="120.0000455" y1="115.999962" y2="115.999962">
        <stop offset="0" stop-color="#77767b"/>
        <stop offset="0.0357143" stop-color="#c0bfbc"/>
        <stop offset="0.0713653" stop-color="#9a9996"/>
        <stop offset="0.928571" stop-color="#9a9996"/>
        <stop offset="0.964286" stop-color="#c0bfbc"/>
        <stop offset="1" stop-color="#77767b"/>
    </linearGradient>
    <linearGradient id="b" gradientUnits="userSpaceOnUse" x1="20.994173" x2="99.776367" y1="224.875977" y2="224.875977">
        <stop offset="0"/>
        <stop offset="1" stop-opacity="0"/>
    </linearGradient>
    <path d="m 16 40 h 96 c 4.417969 0 8 3.582031 8 8 v 60 c 0 4.417969 -3.582031 8 -8 8 h -96 c -4.417969 0 -8 -3.582031 -8 -8 v -60 c 0 -4.417969 3.582031 -8 8 -8 z m 0 0" fill="url(#a)"/>
    <path d="m 16 28 h 96 c 4.417969 0 8 3.582031 8 8 v 68 c 0 4.417969 -3.582031 8 -8 8 h -96 c -4.417969 0 -8 -3.582031 -8 -8 v -68 c 0 -4.417969 3.582031 -8 8 -8 z m 0 0" fill="#deddda"/>
    <path d="m 82.164062 98.730469 v -7.875 c 0 -0.394531 0.695313 -0.714844 1.550782 -0.714844 h 16.300781 c 0.859375 0 1.554687 0.320313 1.554687 0.714844 v 7.875 c 0 0.394531 -0.695312 0.714843 -1.554687 0.714843 h -16.300781 c -0.855469 0 -1.550782 -0.320312 -1.550782 -0.714843 z m 0 0" fill="#9a9996"/>
    <path d="m 81.386719 98.730469 v -7.875 c 0 -0.394531 0.695312 -0.714844 1.554687 -0.714844 h 16.300782 c 0.855468 0 1.550781 0.320313 1.550781 0.714844 v 7.875 c 0 0.394531 -0.695313 0.714843 -1.550781 0.714843 h -16.300782 c -0.859375 0 -1.554687 -0.320312 -1.554687 -0.714843 z m 0 0" fill="#9a9996"/>
    <path d="m 82.164062 110.203125 v -7.871094 c 0 -0.394531 0.695313 -0.714843 1.550782 -0.714843 h 16.300781 c 0.859375 0 1.554687 0.320312 1.554687 0.714843 v 7.871094 c 0 0.394531 -0.695312 0.714844 -1.554687 0.714844 h -16.300781 c -0.855469 0 -1.550782 -0.320313 -1.550782 -0.714844 z m 0 0" fill="#9a9996"/>
    <path d="m 81.386719 110.203125 v -7.871094 c 0 -0.394531 0.695312 -0.714843 1.554687 -0.714843 h 16.300782 c 0.855468 0 1.550781 0.320312 1.550781 0.714843 v 7.871094 c 0 0.394531 -0.695313 0.714844 -1.550781 0.714844 h -16.300782 c -0.859375 0 -1.554687 -0.320313 -1.554687 -0.714844 z m 0 0" fill="#9a9996"/>
    <path d="m 82.164062 96.84375 v -7.871094 c 0 -0.394531 0.695313 -0.714844 1.550782 -0.714844 h 16.300781 c 0.859375 0 1.554687 0.320313 1.554687 0.714844 v 7.871094 c 0 0.398438 -0.695312 0.71875 -1.554687 0.71875 h -16.300781 c -0.855469 0 -1.550782 -0.320312 -1.550782 -0.71875 z m 0 0" fill="#ffffff"/>
    <path d="m 81.386719 96.84375 v -7.871094 c 0 -0.394531 0.695312 -0.714844 1.554687 -0.714844 h 16.300782 c 0.855468 0 1.550781 0.320313 1.550781 0.714844 v 7.871094 c 0 0.398438 -0.695313 0.71875 -1.550781 0.71875 h -16.300782 c -0.859375 0 -1.554687 -0.320312 -1.554687 -0.71875 z m 0 0" fill="#ffffff"/>
    <path d="m 82.164062 108.585938 v -7.871094 c 0 -0.394532 0.695313 -0.714844 1.550782 -0.714844 h 16.300781 c 0.859375 0 1.554687 0.320312 1.554687 0.714844 v 7.871094 c 0 0.398437 -0.695312 0.71875 -1.554687 0.71875 h -16.300781 c -0.855469 0 -1.550782 -0.320313 -1.550782 -0.71875 z m 0 0" fill="#ffffff"/>
    <path d="m 81.386719 108.585938 v -7.871094 c 0 -0.394532 0.695312 -0.714844 1.554687 -0.714844 h 16.300782 c 0.855468 0 1.550781 0.320312 1.550781 0.714844 v 7.871094 c 0 0.398437 -0.695313 0.71875 -1.550781 0.71875 h -16.300782 c -0.859375 0 -1.554687 -0.320313 -1.554687 -0.71875 z m 0 0" fill="#ffffff"/>
    <path d="m 84.261719 105.113281 h 4.527343" fill="none" stroke="#000000" stroke-width="0.923914"/>
    <path d="m 94.265625 105.113281 h 4.527344" fill="none" stroke="#000000" stroke-width="0.923914"/>
    <path d="m 96.53125 107.375 c 0 -1.507812 0 -3.015625 0 -4.523438" fill="none" stroke="#000000" stroke-width="0.923914"/>
    <path d="m 82.941406 78.835938 h 17.074219 c 0.859375 0 1.554687 0.292968 1.554687 0.652343 v 6.84375 c 0 0.363281 -0.695312 0.652344 -1.554687 0.652344 h -17.074219 c -0.859375 0 -1.554687 -0.289063 -1.554687 -0.652344 v -6.84375 c 0 -0.359375 0.695312 -0.652343 1.554687 -0.652343 z m 0 0" fill="#9a9996"/>
    <path d="m 82.941406 78.511719 h 17.074219 c 0.859375 0 1.554687 0.289062 1.554687 0.648437 v 6.847656 c 0 0.359376 -0.695312 0.652344 -1.554687 0.652344 h -17.074219 c -0.859375 0 -1.554687 -0.292968 -1.554687 -0.652344 v -6.847656 c 0 -0.359375 0.695312 -0.648437 1.554687 -0.648437 z m 0 0" fill="#9a9996"/>
    <path d="m 82.164062 84.625 v -7.871094 c 0 -0.394531 0.695313 -0.714844 1.550782 -0.714844 h 16.300781 c 0.859375 0 1.554687 0.320313 1.554687 0.714844 v 7.871094 c 0 0.398438 -0.695312 0.71875 -1.554687 0.71875 h -16.300781 c -0.855469 0 -1.550782 -0.320312 -1.550782 -0.71875 z m 0 0" fill="#ffffff"/>
    <path d="m 81.386719 84.625 v -7.871094 c 0 -0.394531 0.695312 -0.714844 1.554687 -0.714844 h 16.300782 c 0.855468 0 1.550781 0.320313 1.550781 0.714844 v 7.871094 c 0 0.398438 -0.695313 0.71875 -1.550781 0.71875 h -16.300782 c -0.859375 0 -1.554687 -0.320312 -1.554687 -0.71875 z m 0 0" fill="#ffffff"/>
    <path d="m 94.265625 80.691406 h 4.527344" fill="none" stroke="#000000" stroke-width="0.923914"/>
    <path d="m 96.53125 82.953125 c 0 -1.507813 0 -3.019531 0 -4.527344" fill="none" stroke="#000000" stroke-width="0.923914"/>
    <path d="m 43.714844 101.304688 h 7.871094 c 0.398437 0 0.71875 0.292968 0.71875 0.652343 v 6.84375 c 0 0.359375 -0.320313 0.652344 -0.71875 0.652344 h -7.871094 c -0.394532 0 -0.714844 -0.292969 -0.714844 -0.652344 v -6.84375 c 0 -0.359375 0.320312 -0.652343 0.714844 -0.652343 z m 0 0" fill="#3d3846"/>
    <path d="m 43.714844 100.976562 h 7.871094 c 0.398437 0 0.71875 0.292969 0.71875 0.652344 v 6.847656 c 0 0.359376 -0.320313 0.652344 -0.71875 0.652344 h -7.871094 c -0.394532 0 -0.714844 -0.292968 -0.714844 -0.652344 v -6.847656 c 0 -0.359375 0.320312 -0.652344 0.714844 -0.652344 z m 0 0" fill="#3d3846"/>
    <path d="m 43.714844 100.324219 h 7.871094 c 0.398437 0 0.71875 0.292969 0.71875 0.652343 v 6.847657 c 0 0.359375 -0.320313 0.652343 -0.71875 0.652343 h -7.871094 c -0.394532 0 -0.714844 -0.292968 -0.714844 -0.652343 v -6.847657 c 0 -0.359374 0.320312 -0.652343 0.714844 -0.652343 z m 0 0" fill="#5e5c64"/>
    <path d="m 43.714844 100 h 7.871094 c 0.398437 0 0.71875 0.292969 0.71875 0.652344 v 6.84375 c 0 0.363281 -0.320313 0.652344 -0.71875 0.652344 h -7.871094 c -0.394532 0 -0.714844 -0.289063 -0.714844 -0.652344 v -6.84375 c 0 -0.359375 0.320312 -0.652344 0.714844 -0.652344 z m 0 0" fill="#5e5c64"/>
    <path d="m 60.714844 92.144531 h 7.871094 c 0.398437 0 0.71875 0.628907 0.71875 1.40625 v 14.734375 c 0 0.773438 -0.320313 1.402344 -0.71875 1.402344 h -7.871094 c -0.394532 0 -0.714844 -0.628906 -0.714844 -1.402344 v -14.734375 c 0 -0.777343 0.320312 -1.40625 0.714844 -1.40625 z m 0 0" fill="#1a5fb4"/>
    <path d="m 60.714844 91.445312 h 7.871094 c 0.398437 0 0.71875 0.628907 0.71875 1.402344 v 14.734375 c 0 0.773438 -0.320313 1.402344 -0.71875 1.402344 h -7.871094 c -0.394532 0 -0.714844 -0.628906 -0.714844 -1.402344 v -14.734375 c 0 -0.773437 0.320312 -1.402344 0.714844 -1.402344 z m 0 0" fill="#1a5fb4"/>
    <path d="m 60.714844 89.339844 h 7.871094 c 0.398437 0 0.71875 0.695312 0.71875 1.550781 v 16.300781 c 0 0.859375 -0.320313 1.550782 -0.71875 1.550782 h -7.871094 c -0.394532 0 -0.714844 -0.691407 -0.714844 -1.550782 v -16.300781 c 0 -0.855469 0.320312 -1.550781 0.714844 -1.550781 z m 0 0" fill="#62a0ea"/>
    <path d="m 60.714844 88.5625 h 7.871094 c 0.398437 0 0.71875 0.695312 0.71875 1.550781 v 16.300781 c 0 0.859376 -0.320313 1.554688 -0.71875 1.554688 h -7.871094 c -0.394532 0 -0.714844 -0.695312 -0.714844 -1.554688 v -16.300781 c 0 -0.855469 0.320312 -1.550781 0.714844 -1.550781 z m 0 0" fill="#62a0ea"/>
    <path d="m 43.714844 89.558594 h 7.871094 c 0.398437 0 0.71875 0.289062 0.71875 0.652344 v 6.84375 c 0 0.359374 -0.320313 0.652343 -0.71875 0.652343 h -7.871094 c -0.394532 0 -0.714844 -0.292969 -0.714844 -0.652343 v -6.84375 c 0 -0.363282 0.320312 -0.652344 0.714844 -0.652344 z m 0 0" fill="#3d3846"/>
    <path d="m 43.714844 89.230469 h 7.871094 c 0.398437 0 0.71875 0.292969 0.71875 0.652343 v 6.847657 c 0 0.359375 -0.320313 0.648437 -0.71875 0.648437 h -7.871094 c -0.394532 0 -0.714844 -0.289062 -0.714844 -0.648437 v -6.847657 c 0 -0.359374 0.320312 -0.652343 0.714844 -0.652343 z m 0 0" fill="#3d3846"/>
    <path d="m 43.714844 88.582031 h 7.871094 c 0.398437 0 0.71875 0.292969 0.71875 0.652344 v 6.847656 c 0 0.359375 -0.320313 0.652344 -0.71875 0.652344 h -7.871094 c -0.394532 0 -0.714844 -0.292969 -0.714844 -0.652344 v -6.847656 c 0 -0.359375 0.320312 -0.652344 0.714844 -0.652344 z m 0 0" fill="#5e5c64"/>
    <path d="m 43.714844 88.257812 h 7.871094 c 0.398437 0 0.71875 0.292969 0.71875 0.652344 v 6.84375 c 0 0.363282 -0.320313 0.652344 -0.71875 0.652344 h -7.871094 c -0.394532 0 -0.714844 -0.289062 -0.714844 -0.652344 v -6.84375 c 0 -0.359375 0.320312 -0.652344 0.714844 -0.652344 z m 0 0" fill="#5e5c64"/>
    <path d="m 26.714844 89.5625 h 7.871094 c 0.398437 0 0.71875 0.292969 0.71875 0.652344 v 6.84375 c 0 0.359375 -0.320313 0.652344 -0.71875 0.652344 h -7.871094 c -0.394532 0 -0.714844 -0.292969 -0.714844 -0.652344 v -6.84375 c 0 -0.359375 0.320312 -0.652344 0.714844 -0.652344 z m 0 0" fill="#3d3846"/>
    <path d="m 26.714844 89.234375 h 7.871094 c 0.398437 0 0.71875 0.292969 0.71875 0.652344 v 6.847656 c 0 0.359375 -0.320313 0.652344 -0.71875 0.652344 h -7.871094 c -0.394532 0 -0.714844 -0.292969 -0.714844 -0.652344 v -6.847656 c 0 -0.359375 0.320312 -0.652344 0.714844 -0.652344 z m 0 0" fill="#3d3846"/>
    <path d="m 26.714844 101.304688 h 7.871094 c 0.398437 0 0.71875 0.292968 0.71875 0.652343 v 6.84375 c 0 0.359375 -0.320313 0.652344 -0.71875 0.652344 h -7.871094 c -0.394532 0 -0.714844 -0.292969 -0.714844 -0.652344 v -6.84375 c 0 -0.359375 0.320312 -0.652343 0.714844 -0.652343 z m 0 0" fill="#3d3846"/>
    <path d="m 26.714844 100.976562 h 7.871094 c 0.398437 0 0.71875 0.292969 0.71875 0.652344 v 6.847656 c 0 0.359376 -0.320313 0.652344 -0.71875 0.652344 h -7.871094 c -0.394532 0 -0.714844 -0.292968 -0.714844 -0.652344 v -6.847656 c 0 -0.359375 0.320312 -0.652344 0.714844 -0.652344 z m 0 0" fill="#3d3846"/>
    <g fill="#9a9996">
        <path d="m 43.714844 77.628906 h 7.871094 c 0.398437 0 0.71875 0.289063 0.71875 0.648438 v 6.847656 c 0 0.359375 -0.320313 0.652344 -0.71875 0.652344 h -7.871094 c -0.394532 0 -0.714844 -0.292969 -0.714844 -0.652344 v -6.847656 c 0 -0.359375 0.320312 -0.648438 0.714844 -0.648438 z m 0 0"/>
        <path d="m 43.714844 77.300781 h 7.871094 c 0.398437 0 0.71875 0.292969 0.71875 0.652344 v 6.84375 c 0 0.363281 -0.320313 0.652344 -0.71875 0.652344 h -7.871094 c -0.394532 0 -0.714844 -0.289063 -0.714844 -0.652344 v -6.84375 c 0 -0.359375 0.320312 -0.652344 0.714844 -0.652344 z m 0 0"/>
        <path d="m 60.714844 77.628906 h 7.871094 c 0.398437 0 0.71875 0.289063 0.71875 0.648438 v 6.847656 c 0 0.359375 -0.320313 0.652344 -0.71875 0.652344 h -7.871094 c -0.394532 0 -0.714844 -0.292969 -0.714844 -0.652344 v -6.847656 c 0 -0.359375 0.320312 -0.648438 0.714844 -0.648438 z m 0 0"/>
        <path d="m 60.714844 77.300781 h 7.871094 c 0.398437 0 0.71875 0.292969 0.71875 0.652344 v 6.84375 c 0 0.363281 -0.320313 0.652344 -0.71875 0.652344 h -7.871094 c -0.394532 0 -0.714844 -0.289063 -0.714844 -0.652344 v -6.84375 c 0 -0.359375 0.320312 -0.652344 0.714844 -0.652344 z m 0 0"/>
        <path d="m 26.714844 77.628906 h 7.871094 c 0.398437 0 0.71875 0.289063 0.71875 0.648438 v 6.847656 c 0 0.359375 -0.320313 0.652344 -0.71875 0.652344 h -7.871094 c -0.394532 0 -0.714844 -0.292969 -0.714844 -0.652344 v -6.847656 c 0 -0.359375 0.320312 -0.648438 0.714844 -0.648438 z m 0 0"/>
        <path d="m 26.714844 77.300781 h 7.871094 c 0.398437 0 0.71875 0.292969 0.71875 0.652344 v 6.84375 c 0 0.363281 -0.320313 0.652344 -0.71875 0.652344 h -7.871094 c -0.394532 0 -0.714844 -0.289063 -0.714844 -0.652344 v -6.84375 c 0 -0.359375 0.320312 -0.652344 0.714844 -0.652344 z m 0 0"/>
    </g>
    <path d="m 26.714844 88.585938 h 7.871094 c 0.398437 0 0.71875 0.289062 0.71875 0.648437 v 6.847656 c 0 0.359375 -0.320313 0.652344 -0.71875 0.652344 h -7.871094 c -0.394532 0 -0.714844 -0.292969 -0.714844 -0.652344 v -6.847656 c 0 -0.359375 0.320312 -0.648437 0.714844 -0.648437 z m 0 0" fill="#5e5c64"/>
    <path d="m 26.714844 88.257812 h 7.871094 c 0.398437 0 0.71875 0.292969 0.71875 0.652344 v 6.84375 c 0 0.363282 -0.320313 0.652344 -0.71875 0.652344 h -7.871094 c -0.394532 0 -0.714844 -0.289062 -0.714844 -0.652344 v -6.84375 c 0 -0.359375 0.320312 -0.652344 0.714844 -0.652344 z m 0 0" fill="#5e5c64"/>
    <path d="m 26.714844 100.324219 h 7.871094 c 0.398437 0 0.71875 0.292969 0.71875 0.652343 v 6.847657 c 0 0.359375 -0.320313 0.652343 -0.71875 0.652343 h -7.871094 c -0.394532 0 -0.714844 -0.292968 -0.714844 -0.652343 v -6.847657 c 0 -0.359374 0.320312 -0.652343 0.714844 -0.652343 z m 0 0" fill="#5e5c64"/>
    <path d="m 26.714844 100 h 7.871094 c 0.398437 0 0.71875 0.292969 0.71875 0.652344 v 6.84375 c 0 0.363281 -0.320313 0.652344 -0.71875 0.652344 h -7.871094 c -0.394532 0 -0.714844 -0.289063 -0.714844 -0.652344 v -6.84375 c 0 -0.359375 0.320312 -0.652344 0.714844 -0.652344 z m 0 0" fill="#5e5c64"/>
    <path d="m 60.714844 76.660156 h 7.871094 c 0.398437 0 0.71875 0.28125 0.71875 0.628906 v 6.597657 c 0 0.347656 -0.320313 0.628906 -0.71875 0.628906 h -7.871094 c -0.394532 0 -0.714844 -0.28125 -0.714844 -0.628906 v -6.597657 c 0 -0.347656 0.320312 -0.628906 0.714844 -0.628906 z m 0 0" fill="#c0bfbc"/>
    <path d="m 60.714844 76.039062 h 7.871094 c 0.398437 0 0.71875 0.28125 0.71875 0.628907 v 6.597656 c 0 0.347656 -0.320313 0.628906 -0.71875 0.628906 h -7.871094 c -0.394532 0 -0.714844 -0.28125 -0.714844 -0.628906 v -6.597656 c 0 -0.347657 0.320312 -0.628907 0.714844 -0.628907 z m 0 0" fill="#c0bfbc"/>
    <path d="m 43.714844 76.363281 h 7.871094 c 0.398437 0 0.71875 0.292969 0.71875 0.652344 v 6.847656 c 0 0.359375 -0.320313 0.652344 -0.71875 0.652344 h -7.871094 c -0.394532 0 -0.714844 -0.292969 -0.714844 -0.652344 v -6.847656 c 0 -0.359375 0.320312 -0.652344 0.714844 -0.652344 z m 0 0" fill="#c0bfbc"/>
    <path d="m 43.714844 76.039062 h 7.871094 c 0.398437 0 0.71875 0.292969 0.71875 0.652344 v 6.84375 c 0 0.359375 -0.320313 0.652344 -0.71875 0.652344 h -7.871094 c -0.394532 0 -0.714844 -0.292969 -0.714844 -0.652344 v -6.84375 c 0 -0.359375 0.320312 -0.652344 0.714844 -0.652344 z m 0 0" fill="#c0bfbc"/>
    <path d="m 25.683594 38.5 h 76.570312 c 5.238282 0 5.238282 0 5.238282 4.875 v 24.820312 c 0 5.273438 0.550781 4.785157 -3.503907 4.769532 l -78.648437 -0.210938 c -4.859375 0 -4.859375 -0.472656 -4.859375 -5.179687 v -24.378907 c 0 -4.695312 0 -4.695312 5.203125 -4.695312 z m 0 0" fill="#77767b" stroke="#9a9996"/>
    <path d="m 25.683594 35.015625 h 76.570312 c 5.238282 0 5.238282 0 5.238282 4.878906 v 24.816407 c 0 5.277343 0.550781 4.785156 -3.503907 4.769531 l -78.648437 -0.210938 c -4.859375 0 -4.859375 -0.46875 -4.859375 -5.179687 v -24.378906 c 0 -4.695313 0 -4.695313 5.203125 -4.695313 z m 0 0" fill="#f6f5f4" stroke="#77767b"/>
    <path d="m 20.984375 62 h 86.015625" fill="none" stroke="#a51d2d" stroke-opacity="0.70055" stroke-width="1.03692"/>
    <path d="m 24 35.507812 v 23.015626 v 10.238281" fill="none" stroke="#a51d2d" stroke-opacity="0.704369" stroke-width="0.985715"/>
    <path d="m 21.355469 209.675781 c 2.917969 3.03125 5.839843 6.066407 8.328125 9.605469 c 2.484375 3.539062 4.535156 7.585938 10.097656 11.351562 c 5.566406 3.769532 14.640625 7.253907 25.21875 8.585938 s 22.660156 0.511719 34.742188 -0.308594" fill="none" stroke="url(#b)" stroke-linejoin="round" stroke-width="1.199" transform="matrix(1 0 0 1 0 -172)"/>
    <path d="m 26.714844 76.363281 h 7.871094 c 0.398437 0 0.71875 0.292969 0.71875 0.652344 v 6.847656 c 0 0.359375 -0.320313 0.652344 -0.71875 0.652344 h -7.871094 c -0.394532 0 -0.714844 -0.292969 -0.714844 -0.652344 v -6.847656 c 0 -0.359375 0.320312 -0.652344 0.714844 -0.652344 z m 0 0" fill="#c0bfbc"/>
    <path d="m 26.714844 76.039062 h 7.871094 c 0.398437 0 0.71875 0.292969 0.71875 0.652344 v 6.84375 c 0 0.363282 -0.320313 0.652344 -0.71875 0.652344 h -7.871094 c -0.394532 0 -0.714844 -0.289062 -0.714844 -0.652344 v -6.84375 c 0 -0.359375 0.320312 -0.652344 0.714844 -0.652344 z m 0 0" fill="#c0bfbc"/>
    <path d="m 84.164062 80.691406 h 4.527344" fill="none" stroke="#000000" stroke-width="0.923914"/>
    <path d="m 84.164062 92.910156 h 4.527344" fill="none" stroke="#000000" stroke-width="0.923914"/>
    <path d="m 94.265625 92.910156 h 4.527344" fill="none" stroke="#000000" stroke-width="0.923914"/>
    <path d="m 96.53125 95.171875 c 0 -1.507813 0 -3.019531 0 -4.527344" fill="none" stroke="#000000" stroke-width="0.923914"/>
</svg>
