<?xml version="1.0" encoding="UTF-8"?>
<svg height="128px" viewBox="0 0 128 128" width="128px" xmlns="http://www.w3.org/2000/svg" xmlns:xlink="http://www.w3.org/1999/xlink">
    <linearGradient id="a" gradientTransform="matrix(0.196428 0 0 0.342105 2.596771 273.739943)" gradientUnits="userSpaceOnUse" x1="88.595886" x2="536.595886" y1="-449.394012" y2="-449.394012">
        <stop offset="0" stop-color="#77767b"/>
        <stop offset="0.0500001" stop-color="#c0bfbc"/>
        <stop offset="0.099807" stop-color="#9a9996"/>
        <stop offset="0.900001" stop-color="#9a9996"/>
        <stop offset="0.950001" stop-color="#c0bfbc"/>
        <stop offset="1" stop-color="#77767b"/>
    </linearGradient>
    <linearGradient id="b" gradientUnits="userSpaceOnUse" x1="30.747065" x2="98.413071" y1="201.515137" y2="201.515137">
        <stop offset="0"/>
        <stop offset="1" stop-opacity="0"/>
    </linearGradient>
    <path d="m 28 16 h 72 c 4.417969 0 8 3.582031 8 8 v 88 c 0 4.417969 -3.582031 8 -8 8 h -72 c -4.417969 0 -8 -3.582031 -8 -8 v -88 c 0 -4.417969 3.582031 -8 8 -8 z m 0 0" fill="url(#a)"/>
    <path d="m 28 8 h 72 c 4.417969 0 8 3.582031 8 8 v 92 c 0 4.417969 -3.582031 8 -8 8 h -72 c -4.417969 0 -8 -3.582031 -8 -8 v -92 c 0 -4.417969 3.582031 -8 8 -8 z m 0 0" fill="#deddda"/>
    <path d="m 80.753906 94.472656 h 18.828125 c 0.945313 0 1.710938 0.339844 1.710938 0.765625 v 8.046875 c 0 0.421875 -0.765625 0.765625 -1.710938 0.765625 h -18.828125 c -0.949218 0 -1.714844 -0.34375 -1.714844 -0.765625 v -8.046875 c 0 -0.425781 0.765626 -0.765625 1.714844 -0.765625 z m 0 0" fill="#9a9996"/>
    <path d="m 80.753906 94.085938 h 18.828125 c 0.945313 0 1.710938 0.34375 1.710938 0.769531 v 8.046875 c 0 0.421875 -0.765625 0.765625 -1.710938 0.765625 h -18.828125 c -0.949218 0 -1.714844 -0.34375 -1.714844 -0.765625 v -8.046875 c 0 -0.425781 0.765626 -0.769531 1.714844 -0.769531 z m 0 0" fill="#9a9996"/>
    <path d="m 80.710938 92.382812 h 18.832031 c 0.945312 0 1.710937 0.34375 1.710937 0.765626 v 8.046874 c 0 0.425782 -0.765625 0.769532 -1.710937 0.769532 h -18.832031 c -0.945313 0 -1.710938 -0.34375 -1.710938 -0.769532 v -8.046874 c 0 -0.421876 0.765625 -0.765626 1.710938 -0.765626 z m 0 0" fill="#ffffff"/>
    <path d="m 80.710938 92 h 18.832031 c 0.945312 0 1.710937 0.34375 1.710937 0.765625 v 8.046875 c 0 0.425781 -0.765625 0.765625 -1.710937 0.765625 h -18.832031 c -0.945313 0 -1.710938 -0.339844 -1.710938 -0.765625 v -8.046875 c 0 -0.421875 0.765625 -0.765625 1.710938 -0.765625 z m 0 0" fill="#ffffff"/>
    <g fill="none">
        <path d="m 83 97.171875 h 4.527344" stroke="#000000" stroke-width="1.124"/>
        <path d="m 92.726562 97.171875 h 4.527344" stroke="#000000" stroke-width="1.124"/>
        <path d="m 94.992188 99.4375 c 0 -1.511719 0 -3.019531 0 -4.527344" stroke="#000000" stroke-width="1.124"/>
    </g>
    <path d="m 80.710938 78.675781 h 18.832031 c 0.945312 0 1.710937 0.34375 1.710937 0.765625 v 8.046875 c 0 0.425781 -0.765625 0.769531 -1.710937 0.769531 h -18.832031 c -0.945313 0 -1.710938 -0.34375 -1.710938 -0.769531 v -8.046875 c 0 -0.421875 0.765625 -0.765625 1.710938 -0.765625 z m 0 0" fill="#9a9996"/>
    <path d="m 80.710938 78.292969 h 18.832031 c 0.945312 0 1.710937 0.34375 1.710937 0.765625 v 8.046875 c 0 0.425781 -0.765625 0.769531 -1.710937 0.769531 h -18.832031 c -0.945313 0 -1.710938 -0.34375 -1.710938 -0.769531 v -8.046875 c 0 -0.421875 0.765625 -0.765625 1.710938 -0.765625 z m 0 0" fill="#9a9996"/>
    <path d="m 80.710938 76.382812 h 18.832031 c 0.945312 0 1.710937 0.34375 1.710937 0.765626 v 8.046874 c 0 0.425782 -0.765625 0.769532 -1.710937 0.769532 h -18.832031 c -0.945313 0 -1.710938 -0.34375 -1.710938 -0.769532 v -8.046874 c 0 -0.421876 0.765625 -0.765626 1.710938 -0.765626 z m 0 0" fill="#ffffff"/>
    <path d="m 80.710938 76 h 18.832031 c 0.945312 0 1.710937 0.34375 1.710937 0.765625 v 8.046875 c 0 0.425781 -0.765625 0.765625 -1.710937 0.765625 h -18.832031 c -0.945313 0 -1.710938 -0.339844 -1.710938 -0.765625 v -8.046875 c 0 -0.421875 0.765625 -0.765625 1.710938 -0.765625 z m 0 0" fill="#ffffff"/>
    <path d="m 92.714844 81.171875 h 4.527344" fill="none" stroke="#000000" stroke-width="1.124"/>
    <path d="m 94.976562 83.4375 c 0 -1.511719 0 -3.019531 0 -4.527344" fill="none" stroke="#000000" stroke-width="1.124"/>
    <path d="m 82.988281 81.171875 h 4.523438" fill="none" stroke="#000000" stroke-width="1.124"/>
    <path d="m 80.699219 62.675781 h 18.832031 c 0.945312 0 1.710938 0.34375 1.710938 0.765625 v 8.046875 c 0 0.425781 -0.765626 0.769531 -1.710938 0.769531 h -18.832031 c -0.945313 0 -1.710938 -0.34375 -1.710938 -0.769531 v -8.046875 c 0 -0.421875 0.765625 -0.765625 1.710938 -0.765625 z m 0 0" fill="#9a9996"/>
    <path d="m 80.699219 62.292969 h 18.832031 c 0.945312 0 1.710938 0.34375 1.710938 0.765625 v 8.046875 c 0 0.425781 -0.765626 0.769531 -1.710938 0.769531 h -18.832031 c -0.945313 0 -1.710938 -0.34375 -1.710938 -0.769531 v -8.046875 c 0 -0.421875 0.765625 -0.765625 1.710938 -0.765625 z m 0 0" fill="#9a9996"/>
    <path d="m 80.710938 60.382812 h 18.832031 c 0.945312 0 1.710937 0.34375 1.710937 0.765626 v 8.046874 c 0 0.425782 -0.765625 0.769532 -1.710937 0.769532 h -18.832031 c -0.945313 0 -1.710938 -0.34375 -1.710938 -0.769532 v -8.046874 c 0 -0.421876 0.765625 -0.765626 1.710938 -0.765626 z m 0 0" fill="#ffffff"/>
    <path d="m 80.710938 60 h 18.832031 c 0.945312 0 1.710937 0.34375 1.710937 0.765625 v 8.046875 c 0 0.425781 -0.765625 0.765625 -1.710937 0.765625 h -18.832031 c -0.945313 0 -1.710938 -0.339844 -1.710938 -0.765625 v -8.046875 c 0 -0.421875 0.765625 -0.765625 1.710938 -0.765625 z m 0 0" fill="#ffffff"/>
    <path d="m 92.714844 65.171875 h 4.527344" fill="none" stroke="#000000" stroke-width="1.124"/>
    <path d="m 94.976562 67.4375 c 0 -1.511719 0 -3.019531 0 -4.527344" fill="none" stroke="#000000" stroke-width="1.124"/>
    <path d="m 62.863281 87.15625 h 9.5 c 0.476563 0 0.863281 0.605469 0.863281 1.351562 v 14.191407 c 0 0.746093 -0.386718 1.351562 -0.863281 1.351562 h -9.5 c -0.476562 0 -0.863281 -0.605469 -0.863281 -1.351562 v -14.191407 c 0 -0.746093 0.386719 -1.351562 0.863281 -1.351562 z m 0 0" fill="#1a5fb4"/>
    <path d="m 62.863281 86.480469 h 9.5 c 0.476563 0 0.863281 0.605469 0.863281 1.351562 v 14.191407 c 0 0.746093 -0.386718 1.351562 -0.863281 1.351562 h -9.5 c -0.476562 0 -0.863281 -0.605469 -0.863281 -1.351562 v -14.191407 c 0 -0.746093 0.386719 -1.351562 0.863281 -1.351562 z m 0 0" fill="#1a5fb4"/>
    <path d="m 62.863281 77 h 9.5 c 0.476563 0 0.863281 0.890625 0.863281 1.996094 v 20.960937 c 0 1.105469 -0.386718 2 -0.863281 2 h -9.5 c -0.476562 0 -0.863281 -0.894531 -0.863281 -2 v -20.960937 c 0 -1.105469 0.386719 -1.996094 0.863281 -1.996094 z m 0 0" fill="#3584e4"/>
    <path d="m 62.863281 76 h 9.5 c 0.476563 0 0.863281 0.894531 0.863281 1.996094 v 20.964844 c 0 1.101562 -0.386718 1.996093 -0.863281 1.996093 h -9.5 c -0.476562 0 -0.863281 -0.894531 -0.863281 -1.996093 v -20.964844 c 0 -1.101563 0.386719 -1.996094 0.863281 -1.996094 z m 0 0" fill="#3584e4"/>
    <path d="m 45.863281 94.667969 h 9.5 c 0.476563 0 0.863281 0.335937 0.863281 0.75 v 7.886719 c 0 0.414062 -0.386718 0.75 -0.863281 0.75 h -9.5 c -0.476562 0 -0.863281 -0.335938 -0.863281 -0.75 v -7.886719 c 0 -0.414063 0.386719 -0.75 0.863281 -0.75 z m 0 0" fill="#3d3846"/>
    <path d="m 45.863281 94.292969 h 9.5 c 0.476563 0 0.863281 0.335937 0.863281 0.75 v 7.886719 c 0 0.414062 -0.386718 0.75 -0.863281 0.75 h -9.5 c -0.476562 0 -0.863281 -0.335938 -0.863281 -0.75 v -7.886719 c 0 -0.414063 0.386719 -0.75 0.863281 -0.75 z m 0 0" fill="#3d3846"/>
    <path d="m 45.863281 92.382812 h 9.5 c 0.476563 0 0.863281 0.34375 0.863281 0.765626 v 8.046874 c 0 0.425782 -0.386718 0.769532 -0.863281 0.769532 h -9.5 c -0.476562 0 -0.863281 -0.34375 -0.863281 -0.769532 v -8.046874 c 0 -0.421876 0.386719 -0.765626 0.863281 -0.765626 z m 0 0" fill="#5e5c64"/>
    <path d="m 45.863281 92 h 9.5 c 0.476563 0 0.863281 0.34375 0.863281 0.765625 v 8.046875 c 0 0.425781 -0.386718 0.765625 -0.863281 0.765625 h -9.5 c -0.476562 0 -0.863281 -0.339844 -0.863281 -0.765625 v -8.046875 c 0 -0.421875 0.386719 -0.765625 0.863281 -0.765625 z m 0 0" fill="#5e5c64"/>
    <path d="m 28.863281 94.667969 h 9.5 c 0.476563 0 0.863281 0.335937 0.863281 0.75 v 7.886719 c 0 0.414062 -0.386718 0.75 -0.863281 0.75 h -9.5 c -0.476562 0 -0.863281 -0.335938 -0.863281 -0.75 v -7.886719 c 0 -0.414063 0.386719 -0.75 0.863281 -0.75 z m 0 0" fill="#3d3846"/>
    <path d="m 28.863281 94.292969 h 9.5 c 0.476563 0 0.863281 0.335937 0.863281 0.75 v 7.886719 c 0 0.414062 -0.386718 0.75 -0.863281 0.75 h -9.5 c -0.476562 0 -0.863281 -0.335938 -0.863281 -0.75 v -7.886719 c 0 -0.414063 0.386719 -0.75 0.863281 -0.75 z m 0 0" fill="#3d3846"/>
    <path d="m 28.863281 92.382812 h 9.5 c 0.476563 0 0.863281 0.34375 0.863281 0.765626 v 8.046874 c 0 0.425782 -0.386718 0.769532 -0.863281 0.769532 h -9.5 c -0.476562 0 -0.863281 -0.34375 -0.863281 -0.769532 v -8.046874 c 0 -0.421876 0.386719 -0.765626 0.863281 -0.765626 z m 0 0" fill="#5e5c64"/>
    <path d="m 28.863281 92 h 9.5 c 0.476563 0 0.863281 0.34375 0.863281 0.765625 v 8.046875 c 0 0.425781 -0.386718 0.765625 -0.863281 0.765625 h -9.5 c -0.476562 0 -0.863281 -0.339844 -0.863281 -0.765625 v -8.046875 c 0 -0.421875 0.386719 -0.765625 0.863281 -0.765625 z m 0 0" fill="#5e5c64"/>
    <path d="m 45.863281 78.667969 h 9.5 c 0.476563 0 0.863281 0.335937 0.863281 0.75 v 7.886719 c 0 0.414062 -0.386718 0.75 -0.863281 0.75 h -9.5 c -0.476562 0 -0.863281 -0.335938 -0.863281 -0.75 v -7.886719 c 0 -0.414063 0.386719 -0.75 0.863281 -0.75 z m 0 0" fill="#3d3846"/>
    <path d="m 45.863281 78.292969 h 9.5 c 0.476563 0 0.863281 0.335937 0.863281 0.75 v 7.886719 c 0 0.414062 -0.386718 0.75 -0.863281 0.75 h -9.5 c -0.476562 0 -0.863281 -0.335938 -0.863281 -0.75 v -7.886719 c 0 -0.414063 0.386719 -0.75 0.863281 -0.75 z m 0 0" fill="#3d3846"/>
    <path d="m 45.859375 76.382812 h 9.5 c 0.476563 0 0.863281 0.34375 0.863281 0.765626 v 8.046874 c 0 0.425782 -0.386718 0.769532 -0.863281 0.769532 h -9.5 c -0.476563 0 -0.863281 -0.34375 -0.863281 -0.769532 v -8.046874 c 0 -0.421876 0.386718 -0.765626 0.863281 -0.765626 z m 0 0" fill="#5e5c64"/>
    <path d="m 45.859375 76 h 9.5 c 0.476563 0 0.863281 0.34375 0.863281 0.765625 v 8.046875 c 0 0.425781 -0.386718 0.765625 -0.863281 0.765625 h -9.5 c -0.476563 0 -0.863281 -0.339844 -0.863281 -0.765625 v -8.046875 c 0 -0.421875 0.386718 -0.765625 0.863281 -0.765625 z m 0 0" fill="#5e5c64"/>
    <path d="m 28.863281 78.667969 h 9.5 c 0.476563 0 0.863281 0.335937 0.863281 0.75 v 7.886719 c 0 0.414062 -0.386718 0.75 -0.863281 0.75 h -9.5 c -0.476562 0 -0.863281 -0.335938 -0.863281 -0.75 v -7.886719 c 0 -0.414063 0.386719 -0.75 0.863281 -0.75 z m 0 0" fill="#3d3846"/>
    <path d="m 28.863281 78.292969 h 9.5 c 0.476563 0 0.863281 0.335937 0.863281 0.75 v 7.886719 c 0 0.414062 -0.386718 0.75 -0.863281 0.75 h -9.5 c -0.476562 0 -0.863281 -0.335938 -0.863281 -0.75 v -7.886719 c 0 -0.414063 0.386719 -0.75 0.863281 -0.75 z m 0 0" fill="#3d3846"/>
    <path d="m 28.863281 76.382812 h 9.5 c 0.476563 0 0.863281 0.34375 0.863281 0.765626 v 8.046874 c 0 0.425782 -0.386718 0.769532 -0.863281 0.769532 h -9.5 c -0.476562 0 -0.863281 -0.34375 -0.863281 -0.769532 v -8.046874 c 0 -0.421876 0.386719 -0.765626 0.863281 -0.765626 z m 0 0" fill="#5e5c64"/>
    <path d="m 28.863281 76 h 9.5 c 0.476563 0 0.863281 0.34375 0.863281 0.765625 v 8.046875 c 0 0.425781 -0.386718 0.765625 -0.863281 0.765625 h -9.5 c -0.476562 0 -0.863281 -0.339844 -0.863281 -0.765625 v -8.046875 c 0 -0.421875 0.386719 -0.765625 0.863281 -0.765625 z m 0 0" fill="#5e5c64"/>
    <path d="m 34.183594 17.863281 h 60.980468 c 4.171876 0 4.171876 0 4.171876 4.75 v 24.171875 c 0 5.140625 0.4375 4.660156 -2.792969 4.644532 l -62.636719 -0.203126 c -3.867188 0 -3.867188 -0.457031 -3.867188 -5.042968 v -23.746094 c 0 -4.574219 0 -4.574219 4.144532 -4.574219 z m 0 0" fill="#c0bfbc"/>
    <path d="m 62.863281 62.667969 h 9.5 c 0.476563 0 0.863281 0.335937 0.863281 0.75 v 7.886719 c 0 0.414062 -0.386718 0.75 -0.863281 0.75 h -9.5 c -0.476562 0 -0.863281 -0.335938 -0.863281 -0.75 v -7.886719 c 0 -0.414063 0.386719 -0.75 0.863281 -0.75 z m 0 0" fill="#9a9996"/>
    <path d="m 62.863281 62.292969 h 9.5 c 0.476563 0 0.863281 0.335937 0.863281 0.75 v 7.886719 c 0 0.414062 -0.386718 0.75 -0.863281 0.75 h -9.5 c -0.476562 0 -0.863281 -0.335938 -0.863281 -0.75 v -7.886719 c 0 -0.414063 0.386719 -0.75 0.863281 -0.75 z m 0 0" fill="#9a9996"/>
    <path d="m 62.863281 60.382812 h 9.5 c 0.476563 0 0.863281 0.34375 0.863281 0.765626 v 8.046874 c 0 0.425782 -0.386718 0.769532 -0.863281 0.769532 h -9.5 c -0.476562 0 -0.863281 -0.34375 -0.863281 -0.769532 v -8.046874 c 0 -0.421876 0.386719 -0.765626 0.863281 -0.765626 z m 0 0" fill="#c0bfbc"/>
    <path d="m 62.863281 60 h 9.5 c 0.476563 0 0.863281 0.34375 0.863281 0.765625 v 8.046875 c 0 0.425781 -0.386718 0.765625 -0.863281 0.765625 h -9.5 c -0.476562 0 -0.863281 -0.339844 -0.863281 -0.765625 v -8.046875 c 0 -0.421875 0.386719 -0.765625 0.863281 -0.765625 z m 0 0" fill="#c0bfbc"/>
    <path d="m 45.863281 62.667969 h 9.5 c 0.476563 0 0.863281 0.335937 0.863281 0.75 v 7.886719 c 0 0.414062 -0.386718 0.75 -0.863281 0.75 h -9.5 c -0.476562 0 -0.863281 -0.335938 -0.863281 -0.75 v -7.886719 c 0 -0.414063 0.386719 -0.75 0.863281 -0.75 z m 0 0" fill="#9a9996"/>
    <path d="m 45.863281 62.292969 h 9.5 c 0.476563 0 0.863281 0.335937 0.863281 0.75 v 7.886719 c 0 0.414062 -0.386718 0.75 -0.863281 0.75 h -9.5 c -0.476562 0 -0.863281 -0.335938 -0.863281 -0.75 v -7.886719 c 0 -0.414063 0.386719 -0.75 0.863281 -0.75 z m 0 0" fill="#9a9996"/>
    <path d="m 45.863281 60.382812 h 9.5 c 0.476563 0 0.863281 0.34375 0.863281 0.765626 v 8.046874 c 0 0.425782 -0.386718 0.769532 -0.863281 0.769532 h -9.5 c -0.476562 0 -0.863281 -0.34375 -0.863281 -0.769532 v -8.046874 c 0 -0.421876 0.386719 -0.765626 0.863281 -0.765626 z m 0 0" fill="#c0bfbc"/>
    <path d="m 45.863281 60 h 9.5 c 0.476563 0 0.863281 0.34375 0.863281 0.765625 v 8.046875 c 0 0.425781 -0.386718 0.765625 -0.863281 0.765625 h -9.5 c -0.476562 0 -0.863281 -0.339844 -0.863281 -0.765625 v -8.046875 c 0 -0.421875 0.386719 -0.765625 0.863281 -0.765625 z m 0 0" fill="#c0bfbc"/>
    <path d="m 28.863281 62.667969 h 9.5 c 0.476563 0 0.863281 0.335937 0.863281 0.75 v 7.886719 c 0 0.414062 -0.386718 0.75 -0.863281 0.75 h -9.5 c -0.476562 0 -0.863281 -0.335938 -0.863281 -0.75 v -7.886719 c 0 -0.414063 0.386719 -0.75 0.863281 -0.75 z m 0 0" fill="#9a9996"/>
    <path d="m 28.863281 62.292969 h 9.5 c 0.476563 0 0.863281 0.335937 0.863281 0.75 v 7.886719 c 0 0.414062 -0.386718 0.75 -0.863281 0.75 h -9.5 c -0.476562 0 -0.863281 -0.335938 -0.863281 -0.75 v -7.886719 c 0 -0.414063 0.386719 -0.75 0.863281 -0.75 z m 0 0" fill="#9a9996"/>
    <path d="m 34.066406 15.121094 h 60.980469 c 4.171875 0 4.171875 0 4.171875 4.410156 v 22.460938 c 0 4.777343 0.4375 4.332031 -2.792969 4.316406 l -62.636719 -0.1875 c -3.867187 0 -3.867187 -0.429688 -3.867187 -4.691406 v -22.0625 c 0 -4.246094 0 -4.246094 4.144531 -4.246094 z m 0 0" fill="#f6f5f4" stroke="#77767b" stroke-width="1.26498"/>
    <path d="m 30.546875 38 h 68.039063" fill="none" stroke="#a51d2d" stroke-opacity="0.70055" stroke-width="1.19596"/>
    <path d="m 36.046875 15.746094 v 20.585937 v 9.160157" fill="none" stroke="#a51d2d" stroke-opacity="0.704369" stroke-width="1.24283"/>
    <path d="m 31.386719 188.953125 c 2.492187 2.492187 4.988281 4.984375 7.113281 7.894531 s 3.875 6.234375 8.628906 9.328125 c 4.753906 3.097657 12.503906 5.960938 21.542969 7.058594 c 9.039063 1.09375 19.359375 0.417969 29.683594 -0.257813" fill="none" stroke="url(#b)" stroke-linejoin="round" stroke-width="1.805" transform="matrix(1 0 0 1 0 -172)"/>
    <path d="m 28.863281 60.382812 h 9.5 c 0.476563 0 0.863281 0.34375 0.863281 0.765626 v 8.046874 c 0 0.425782 -0.386718 0.769532 -0.863281 0.769532 h -9.5 c -0.476562 0 -0.863281 -0.34375 -0.863281 -0.769532 v -8.046874 c 0 -0.421876 0.386719 -0.765626 0.863281 -0.765626 z m 0 0" fill="#c0bfbc"/>
    <path d="m 28.863281 60 h 9.5 c 0.476563 0 0.863281 0.34375 0.863281 0.765625 v 8.046875 c 0 0.425781 -0.386718 0.765625 -0.863281 0.765625 h -9.5 c -0.476562 0 -0.863281 -0.339844 -0.863281 -0.765625 v -8.046875 c 0 -0.421875 0.386719 -0.765625 0.863281 -0.765625 z m 0 0" fill="#c0bfbc"/>
    <path d="m 82.988281 65.171875 h 4.523438" fill="none" stroke="#000000" stroke-width="1.124"/>
</svg>
